<svg width="91" height="91" viewBox="0 0 91 91" fill="none" xmlns="http://www.w3.org/2000/svg">
<rect width="91" height="91" rx="20" fill="#080808"/>
<path d="M75.0311 40.1234C74.229 39.2347 65.5896 32.2081 64.0454 31.7539C63.3734 31.5587 62.6979 31.4365 61.9997 31.3853C58.7707 31.1488 55.2086 32.1615 52.964 34.5822C52.7685 34.7932 52.6565 34.9137 52.6565 34.9137C52.6565 34.9137 52.7401 34.7713 52.8864 34.5221C53.5787 33.3541 54.5873 32.3398 55.6673 31.5277C56.1651 31.1535 56.6923 30.8185 57.2428 30.5276C57.3937 30.4478 58.7974 29.6889 58.8918 29.7884L58.1255 28.9798C56.8935 27.7468 55.5604 26.6841 53.745 26.6841C51.4949 26.6841 49.5722 28.08 48.7899 30.0527C48.1262 29.5591 47.0703 29.2397 45.8807 29.2397C44.6912 29.2397 43.6353 29.5591 42.9715 30.0527C42.1893 28.0799 40.2665 26.6841 38.0164 26.6841C36.201 26.6841 34.868 27.7468 33.6359 28.9797L32.8696 29.7883C32.9639 29.6888 34.3676 30.4477 34.5186 30.5275C35.0691 30.8185 35.5963 31.1535 36.094 31.5276C37.1743 32.3397 38.1827 33.354 38.8749 34.522C39.0213 34.7713 39.1049 34.9137 39.1049 34.9137C39.1049 34.9137 38.9932 34.7931 38.7975 34.5821C36.5528 32.1614 32.9908 31.1487 29.7618 31.3853C29.0636 31.4364 28.3881 31.5586 27.7161 31.7538C26.1718 32.2081 17.5324 39.2346 16.7304 40.1233C14.412 42.6922 13 46.0958 13 49.8297C13 57.831 19.4825 64.3176 27.479 64.3176C34.7941 64.3176 40.8411 58.8891 41.8188 51.8387C42.9588 52.6698 44.3625 53.1604 45.8809 53.1604C47.3993 53.1604 48.8029 52.6698 49.9429 51.8387C50.9206 58.889 56.9675 64.3176 64.2827 64.3176C72.2793 64.3176 78.7617 57.831 78.7617 49.8297C78.7616 46.0958 77.3495 42.6923 75.0311 40.1234ZM27.1578 58.9292C22.3355 58.9292 18.4261 55.0175 18.4261 50.1922C18.4261 45.367 22.3355 41.4553 27.1578 41.4553C31.9802 41.4553 35.8896 45.367 35.8896 50.1922C35.8896 55.0175 31.9802 58.9292 27.1578 58.9292ZM45.8807 49.3715C44.6088 49.3715 43.5776 48.3397 43.5776 47.067C43.5776 45.7943 44.6088 44.7626 45.8807 44.7626C47.1527 44.7626 48.1838 45.7944 48.1838 47.067C48.1838 48.3397 47.1527 49.3715 45.8807 49.3715ZM64.6036 58.9292C59.7812 58.9292 55.8719 55.0175 55.8719 50.1922C55.8719 45.367 59.7812 41.4553 64.6036 41.4553C69.426 41.4553 73.3353 45.367 73.3353 50.1922C73.3353 55.0175 69.426 58.9292 64.6036 58.9292Z" fill="white"/>
</svg>
